<svg viewBox="0 0 175 130" xmlns="http://www.w3.org/2000/svg">
  <!-- Libro 1 -->
  <rect x="10" y="30" width="28" height="90" fill="#1a1a1a" rx="1.5"/>
  <rect x="12" y="32" width="24" height="86" fill="none" stroke="white" stroke-width="0.8" opacity="0.3"/>
  <line x1="14.5" y1="30" x2="14.5" y2="120" stroke="white" stroke-width="1.5" opacity="0.6"/>
  <rect x="17" y="58" width="18" height="2.5" fill="white" opacity="0.4"/>
  <rect x="17" y="64" width="18" height="1.5" fill="white" opacity="0.3"/>
  <rect x="17" y="69" width="14" height="1.5" fill="white" opacity="0.3"/>
  
  <!-- Libro 2 -->
  <rect x="42" y="20" width="28" height="100" fill="#1a1a1a" rx="1.5"/>
  <rect x="44" y="22" width="24" height="96" fill="none" stroke="white" stroke-width="0.8" opacity="0.3"/>
  <line x1="46.5" y1="20" x2="46.5" y2="120" stroke="white" stroke-width="1.5" opacity="0.6"/>
  <rect x="49" y="60" width="18" height="2.5" fill="white" opacity="0.4"/>
  <rect x="49" y="66" width="18" height="1.5" fill="white" opacity="0.3"/>
  <rect x="49" y="71" width="14" height="1.5" fill="white" opacity="0.3"/>
  
  <!-- Libro 3 -->
  <rect x="74" y="25" width="28" height="95" fill="#1a1a1a" rx="1.5"/>
  <rect x="76" y="27" width="24" height="91" fill="none" stroke="white" stroke-width="0.8" opacity="0.3"/>
  <line x1="78.5" y1="25" x2="78.5" y2="120" stroke="white" stroke-width="1.5" opacity="0.6"/>
  <rect x="81" y="62" width="18" height="2.5" fill="white" opacity="0.4"/>
  <rect x="81" y="68" width="18" height="1.5" fill="white" opacity="0.3"/>
  <rect x="81" y="73" width="14" height="1.5" fill="white" opacity="0.3"/>
  
  <!-- Libro 4 -->
  <rect x="106" y="15" width="28" height="105" fill="#1a1a1a" rx="1.5"/>
  <rect x="108" y="17" width="24" height="101" fill="none" stroke="white" stroke-width="0.8" opacity="0.3"/>
  <line x1="110.5" y1="15" x2="110.5" y2="120" stroke="white" stroke-width="1.5" opacity="0.6"/>
  <rect x="113" y="58" width="18" height="2.5" fill="white" opacity="0.4"/>
  <rect x="113" y="64" width="18" height="1.5" fill="white" opacity="0.3"/>
  <rect x="113" y="69" width="14" height="1.5" fill="white" opacity="0.3"/>
  
  <!-- Libro 5 -->
  <rect x="138" y="28" width="28" height="92" fill="#1a1a1a" rx="1.5"/>
  <rect x="140" y="30" width="24" height="88" fill="none" stroke="white" stroke-width="0.8" opacity="0.3"/>
  <line x1="142.5" y1="28" x2="142.5" y2="120" stroke="white" stroke-width="1.5" opacity="0.6"/>
  <rect x="145" y="63" width="18" height="2.5" fill="white" opacity="0.4"/>
  <rect x="145" y="69" width="18" height="1.5" fill="white" opacity="0.3"/>
  <rect x="145" y="74" width="14" height="1.5" fill="white" opacity="0.3"/>
  
  <!-- Base decorativa -->
  <rect x="5" y="121" width="165" height="1.5" fill="white" opacity="0.2"/>
</svg>